HIERARCHY
ROOT Pelvis
{
	OFFSET 0.000000 0.000000 0.000000
	CHANNELS 6 Xposition Yposition Zposition Xrotation Yrotation Zrotation
	JOINT LeftUpLeg_virtual
	{
		OFFSET 0.000000 0.000000 0.000000
		CHANNELS 3 Xrotation Yrotation Zrotation
		JOINT LeftUpLeg
		{
			OFFSET 8.479700 -4.795502 -0.379100
			CHANNELS 3 Xrotation Yrotation Zrotation
			JOINT LeftLeg
			{
				OFFSET 0.024144 -32.555107 0.112900
				CHANNELS 3 Xrotation Yrotation Zrotation
				JOINT LeftFoot
				{
					OFFSET -0.024144 -32.638630 -3.012600
					CHANNELS 3 Xrotation Yrotation Zrotation
					JOINT LeftToeBase
					{
						OFFSET 0.970200 -13.225400 11.864200
						CHANNELS 3 Xrotation Yrotation Zrotation
						End Site
						{
							OFFSET 0 0 0
						}
					}
				}
			}
		}
	}
	JOINT RightUpLeg_virtual
	{
		OFFSET 0.000000 0.000000 0.000000
		CHANNELS 3 Xrotation Yrotation Zrotation
		JOINT RightUpLeg
		{
			OFFSET -8.479700 -4.795502 -0.379100
			CHANNELS 3 Xrotation Yrotation Zrotation
			JOINT RightLeg
			{
				OFFSET -0.023144 -32.555092 0.112900
				CHANNELS 3 Xrotation Yrotation Zrotation
				JOINT RightFoot
				{
					OFFSET 0.023144 -32.638641 -3.012700
					CHANNELS 3 Xrotation Yrotation Zrotation
					JOINT RightToeBase
					{
						OFFSET -0.970200 -13.225400 11.864200
						CHANNELS 3 Xrotation Yrotation Zrotation
						End Site
						{
							OFFSET 0 0 0
						}
					}
				}
			}
		}
	}
	JOINT Hips_virtual
	{
		OFFSET 0.000000 0.000000 0.000000
		CHANNELS 3 Xrotation Yrotation Zrotation
		JOINT Hips
		{
			OFFSET -0.000000 -0.000000 -0.000000
			CHANNELS 3 Xrotation Yrotation Zrotation
			JOINT Spine
			{
				OFFSET 0.000000 7.722000 1.166200
				CHANNELS 3 Xrotation Yrotation Zrotation
				JOINT Spine1
				{
					OFFSET 0.000000 12.024101 0.248800
					CHANNELS 3 Xrotation Yrotation Zrotation
					JOINT Spine2
					{
						OFFSET 0.000000 11.502998 -0.491200
						CHANNELS 3 Xrotation Yrotation Zrotation
						JOINT Neck_virtual
						{
							OFFSET 0.000000 0.000000 0.000000
							CHANNELS 3 Xrotation Yrotation Zrotation
							JOINT Neck
							{
								OFFSET 0.000000 18.430702 -3.123100
								CHANNELS 3 Xrotation Yrotation Zrotation
								JOINT Head
								{
									OFFSET 0.000000 9.051102 1.034000
									CHANNELS 3 Xrotation Yrotation Zrotation
									End Site
									{
										OFFSET 0 0 0
									}
								}
							}
						}
						JOINT LeftShoulder_virtual
						{
							OFFSET 0.000000 0.000000 0.000000
							CHANNELS 3 Xrotation Yrotation Zrotation
							JOINT LeftShoulder
							{
								OFFSET 6.197800 13.665199 -4.064700
								CHANNELS 3 Xrotation Yrotation Zrotation
								JOINT LeftArm
								{
									OFFSET 7.778100 -0.187103 -1.709300
									CHANNELS 3 Xrotation Yrotation Zrotation
									JOINT LeftForeArm
									{
										OFFSET 22.049376 0.000000 0.000000
										CHANNELS 3 Xrotation Yrotation Zrotation
										JOINT LeftHand
										{
											OFFSET 23.009392 0.000000 0.000000
											CHANNELS 3 Xrotation Yrotation Zrotation
											End Site
											{
												OFFSET 0 0 0
											}
										}
									}
								}
							}
						}
						JOINT RightShoulder_virtual
						{
							OFFSET 0.000000 0.000000 0.000000
							CHANNELS 3 Xrotation Yrotation Zrotation
							JOINT RightShoulder
							{
								OFFSET -6.197800 13.665199 -4.064700
								CHANNELS 3 Xrotation Yrotation Zrotation
								JOINT RightArm
								{
									OFFSET -7.778100 -0.187103 -1.709300
									CHANNELS 3 Xrotation Yrotation Zrotation
									JOINT RightForeArm
									{
										OFFSET -22.049376 0.000000 0.000000
										CHANNELS 3 Xrotation Yrotation Zrotation
										JOINT RightHand
										{
											OFFSET -23.009392 0.000000 0.000000
											CHANNELS 3 Xrotation Yrotation Zrotation
											End Site
											{
												OFFSET 0 0 0
											}
										}
									}
								}
							}
						}
					}
				}
			}
		}
	}
}
MOTION
Frames: 8
Frame Time: 0.03333333
-0.203956 80.775414 0.570620 0.000000 0.000000 0.000000 2.379618 -11.981316 -0.555506 -19.395505 11.951036 13.840636 20.692237 5.101122 1.905632 -2.253135 5.345814 -11.029066 0.000000 0.000000 0.000000 2.379618 -11.981316 -0.555506 -12.771515 -8.405442 -6.876792 21.725886 -5.116523 -1.776054 -10.544478 -0.583063 8.993697 0.000000 0.000000 0.000000 2.379618 -11.981316 -0.555506 0.000000 -0.000001 0.000000 9.422354 2.006498 0.474675 2.870547 4.029877 0.917350 0.000000 0.000000 0.000000 -9.001476 3.754921 1.727677 -3.884245 2.070162 -6.983151 0.000000 0.000000 0.000000 -9.001476 3.754921 1.727677 -1.295775 0.077918 -4.827720 -3.652865 -0.069589 -73.007038 -0.000050 -15.717672 -0.000389 0.000000 0.000000 0.000000 -9.001476 3.754921 1.727677 -1.295768 -0.077837 4.827748 3.909176 3.069878 67.997743 -0.000003 18.089259 0.000002 0.000000 0.000000 0.000000 
-0.161743 80.770256 0.584751 0.000000 0.000000 0.000000 2.552307 -12.062339 -0.568229 -19.613766 11.902867 13.863746 20.827451 5.163846 1.915209 -2.330924 5.395383 -11.023703 0.000000 0.000000 0.000000 2.552307 -12.062339 -0.568229 -12.937368 -8.395735 -6.859657 21.674536 -5.077220 -1.770892 -10.495753 -0.553524 9.013103 0.000000 0.000000 0.000000 2.552307 -12.062339 -0.568229 0.000000 0.000000 0.000000 9.397780 1.923741 0.495546 2.806027 4.034561 0.910477 0.000000 0.000000 0.000000 -9.063598 3.756301 1.734031 -4.162335 1.706293 -7.754409 0.000000 0.000000 0.000000 -9.063598 3.756301 1.734031 -1.298115 0.155753 -4.850347 -3.189658 0.061113 -72.936742 -0.000017 -16.015504 -0.000207 0.000000 0.000000 0.000000 -9.063598 3.756301 1.734031 -1.275743 -0.132166 4.800658 4.101211 3.268592 67.974500 0.000930 18.208670 -0.000184 0.000000 0.000000 0.000000 
-0.041249 80.758850 0.598524 0.000000 0.000000 0.000000 2.726678 -12.114773 -0.581121 -19.915717 11.853640 13.831417 21.106260 5.213386 1.928214 -2.491059 5.438423 -10.952879 0.000000 0.000000 0.000000 2.726678 -12.114773 -0.581121 -13.117150 -8.371031 -6.908326 21.611815 -5.052022 -1.766042 -10.412636 -0.538178 9.098351 0.000000 0.000000 0.000000 2.726678 -12.114773 -0.581121 0.000000 0.000000 0.000000 9.394707 1.822747 0.538717 2.763055 4.049153 0.909946 0.000000 0.000000 0.000000 -9.100127 3.757396 1.768803 -4.412550 1.409383 -8.672616 0.000000 0.000000 0.000000 -9.100127 3.757396 1.768803 -1.303887 0.333881 -4.902910 -3.050631 0.056950 -72.883357 -0.000014 -15.382365 -0.000247 0.000000 0.000000 0.000000 -9.100127 3.757396 1.768803 -1.219721 -0.284618 4.724593 4.623787 3.807457 67.911806 0.003492 18.543427 -0.000424 0.000000 0.000000 0.000000 
0.149306 80.741829 0.612358 0.000000 0.000000 0.000000 2.901996 -12.150888 -0.594015 -20.285180 11.806334 13.749343 21.504623 5.256152 1.944382 -2.720618 5.478462 -10.825025 0.000000 0.000000 0.000000 2.901996 -12.150888 -0.594015 -13.309200 -8.332249 -7.017233 21.535651 -5.033794 -1.759982 -10.295542 -0.531674 9.241076 0.000000 0.000000 0.000000 2.901996 -12.150888 -0.594015 0.000000 0.000000 0.000000 9.413614 1.709164 0.597296 2.745823 4.068234 0.905524 0.000000 0.000000 0.000000 -9.107703 3.755930 1.814801 -4.798415 1.136500 -9.430944 0.000000 0.000000 0.000000 -9.107703 3.755930 1.814801 -1.311609 0.529197 -4.962479 -2.922616 0.021944 -72.895699 0.000042 -14.822130 -0.000239 0.000000 0.000000 0.000000 -9.107703 3.755930 1.814801 -1.134009 -0.519547 4.607378 5.397547 4.600121 67.820398 0.007693 19.058806 -0.000939 0.000000 0.000000 0.000000 
0.401744 80.719879 0.626692 0.000000 0.000000 0.000000 3.077555 -12.182944 -0.606725 -20.706912 11.763876 13.622602 22.001986 5.299087 1.963746 -3.011988 5.519444 -10.647874 0.000000 0.000000 0.000000 3.077555 -12.182944 -0.606725 -13.511304 -8.280754 -7.179947 21.443900 -5.015276 -1.750957 -10.147014 -0.528553 9.432062 0.000000 0.000000 0.000000 3.077555 -12.182944 -0.606725 0.000000 0.000000 0.000000 9.445784 1.584572 0.664913 2.744153 4.087135 0.891779 0.000000 0.000000 0.000000 -9.097148 3.749335 1.859649 -5.267896 0.741759 -9.915451 0.000000 0.000000 0.000000 -9.097148 3.749335 1.859649 -1.329870 0.782993 -5.049401 -2.831415 -0.014491 -72.803068 -0.000013 -14.409223 -0.000554 0.000000 0.000000 0.000000 -9.097148 3.749335 1.859649 -1.025138 -0.821262 4.456893 6.342766 5.560422 67.711108 0.013338 19.719939 -0.001482 0.000000 0.000000 0.000000 
0.707848 80.693802 0.641945 0.000000 0.000000 0.000000 3.252664 -12.223205 -0.618919 -21.164222 11.729316 13.456861 22.573304 5.348922 1.985803 -3.352056 5.564992 -10.429499 0.000000 0.000000 0.000000 3.252664 -12.223205 -0.618919 -13.720072 -8.218092 -7.390359 21.330809 -4.989135 -1.737136 -9.964787 -0.523232 9.662294 0.000000 0.000000 0.000000 3.252664 -12.223205 -0.618919 0.000000 0.000000 0.000000 9.486609 1.443446 0.734255 2.752585 4.100423 0.858748 0.000000 0.000000 0.000000 -9.074629 3.735212 1.886390 -5.806693 0.102241 -10.024218 0.000000 0.000000 0.000000 -9.074629 3.735212 1.886390 -1.352837 1.082993 -5.152937 -2.503505 0.039097 -72.652285 -0.000057 -14.559255 -0.001086 0.000000 0.000000 0.000000 -9.074629 3.735212 1.886390 -0.899491 -1.174163 4.280982 7.378350 6.602950 67.593560 0.020346 20.492178 -0.002603 0.000000 0.000000 0.000000 
1.059402 80.664215 0.658554 0.000000 0.000000 0.000000 3.426622 -12.283913 -0.630233 -21.641775 11.705033 13.257806 23.196533 5.412592 2.010374 -3.729099 5.618967 -10.178265 0.000000 0.000000 0.000000 3.426622 -12.283913 -0.630233 -13.933940 -8.145844 -7.641894 21.194774 -4.947993 -1.717298 -9.751788 -0.510364 9.922972 0.000000 0.000000 0.000000 3.426622 -12.283913 -0.630233 0.000000 0.000000 0.000000 9.533856 1.275183 0.799671 2.771595 4.102794 0.797747 0.000000 0.000000 0.000000 -9.040356 3.710989 1.879356 -6.470508 -0.841052 -9.715844 0.000000 0.000000 0.000000 -9.040356 3.710989 1.879356 -1.379878 1.427032 -5.266674 -1.797356 0.223785 -72.428357 -0.000066 -15.538636 -0.001024 0.000000 0.000000 0.000000 -9.040356 3.710989 1.879356 -0.763341 -1.562538 4.087425 8.421360 7.643039 67.475562 0.028690 21.340573 -0.004014 0.000000 0.000000 0.000000 
1.448199 80.631813 0.676949 0.000000 0.000000 0.000000 3.598773 -12.377333 -0.640257 -22.125510 11.692738 13.031805 23.852049 5.496884 2.036992 -4.134720 5.685484 -9.902675 0.000000 0.000000 0.000000 3.598773 -12.377333 -0.640257 -14.150461 -8.065776 -7.927598 21.031148 -4.884787 -1.690794 -9.507176 -0.484371 10.205773 0.000000 0.000000 0.000000 3.598773 -12.377333 -0.640257 0.000000 0.000000 0.000000 9.587473 1.066071 0.859448 2.805341 4.089841 0.706638 0.000000 0.000000 0.000000 -8.991008 3.673633 1.829487 -7.288794 -2.058886 -9.035704 0.000000 0.000000 0.000000 -8.991008 3.673633 1.829487 -1.411122 1.809414 -5.382578 -0.819710 0.465268 -72.133969 -0.000197 -17.049421 -0.001434 0.000000 0.000000 0.000000 -8.991008 3.673633 1.829487 -0.622516 -1.970494 3.883903 9.387304 8.596387 67.362379 0.038107 22.230316 -0.005896 0.000000 0.000000 0.000000 
